<svg width="44" height="34" viewBox="0 0 44 34" fill="none" xmlns="http://www.w3.org/2000/svg" xmlns:xlink="http://www.w3.org/1999/xlink">
<path d="M4.279,11.555L5.047,12.844L5.052,12.841L4.279,11.555ZM2.059,15.92L3.523,15.594L3.521,15.582L2.059,15.92ZM4.719,27.86L3.255,28.187L3.256,28.19L4.719,27.86ZM39.279,27.86L40.742,28.192L40.743,28.187L39.279,27.86ZM41.939,15.92L43.404,16.246L43.405,16.239L41.939,15.92ZM39.719,11.555L40.495,10.271L40.491,10.269L39.719,11.555ZM25.859,3.245L25.085,4.53L25.088,4.532L25.859,3.245ZM17.367,1.944L3.507,10.269L5.052,12.841L18.912,4.516L17.367,1.944ZM3.511,10.267C2.465,10.891 1.638,11.837 1.12,12.855C0.609,13.859 0.326,15.083 0.598,16.258L3.521,15.582C3.453,15.287 3.499,14.794 3.794,14.215C4.081,13.652 4.534,13.15 5.047,12.844L3.511,10.267ZM0.595,16.246L3.255,28.187L6.183,27.534L3.523,15.594L0.595,16.246ZM3.256,28.19C3.609,29.758 4.736,31.017 6.056,31.853C7.393,32.701 9.071,33.215 10.799,33.215L10.799,30.215C9.647,30.215 8.525,29.867 7.663,29.32C6.782,28.762 6.309,28.092 6.183,27.531L3.256,28.19ZM10.799,33.215L33.199,33.215L33.199,30.215L10.799,30.215L10.799,33.215ZM33.199,33.215C34.921,33.215 36.599,32.695 37.935,31.848C39.252,31.012 40.387,29.756 40.742,28.192L37.817,27.528C37.691,28.08 37.216,28.751 36.328,29.314C35.46,29.865 34.337,30.215 33.199,30.215L33.199,33.215ZM40.743,28.187L43.403,16.246L40.475,15.594L37.815,27.534L40.743,28.187ZM43.405,16.239C43.659,15.071 43.372,13.854 42.864,12.855C42.348,11.841 41.53,10.896 40.495,10.271L38.944,12.839C39.449,13.144 39.901,13.647 40.19,14.215C40.487,14.799 40.539,15.3 40.474,15.601L43.405,16.239ZM40.491,10.269L26.631,1.959L25.088,4.532L38.948,12.842L40.491,10.269ZM26.634,1.961C25.278,1.143 23.595,0.778 21.994,0.776C20.394,0.774 18.714,1.134 17.366,1.945L18.912,4.516C19.685,4.051 20.795,3.774 21.99,3.776C23.184,3.778 24.301,4.057 25.085,4.53L26.634,1.961Z" fill="#1E91B6"/>
<path d="M16.888,19.35C16.214,19.832 16.058,20.769 16.54,21.443C17.021,22.117 17.958,22.273 18.632,21.791L16.888,19.35ZM25.368,21.791C26.042,22.273 26.979,22.117 27.46,21.443C27.942,20.769 27.786,19.832 27.112,19.35L25.368,21.791ZM18.632,21.791C20.65,20.349 23.35,20.349 25.368,21.791L27.112,19.35C24.05,17.162 19.95,17.162 16.888,19.35L18.632,21.791Z" fill="#1E91B6"/>
<path d="M29.589,18.598C30.256,19.09 31.195,18.947 31.686,18.281C32.178,17.614 32.035,16.675 31.369,16.183L29.589,18.598ZM26.959,15.531L26.447,16.941L26.447,16.941L26.959,15.531ZM21.989,14.676L21.989,13.176L21.989,14.676ZM17.019,15.531L17.53,16.941L17.531,16.941L17.019,15.531ZM12.62,16.175C11.949,16.66 11.798,17.598 12.283,18.269C12.768,18.941 13.706,19.092 14.377,18.606L12.62,16.175ZM31.369,16.183C30.213,15.332 28.895,14.638 27.471,14.121L26.447,16.941C27.623,17.368 28.683,17.931 29.589,18.598L31.369,16.183ZM27.471,14.121C25.75,13.496 23.877,13.176 21.989,13.176L21.989,16.176C23.543,16.176 25.069,16.44 26.447,16.941L27.471,14.121ZM21.989,13.176C20.1,13.176 18.227,13.496 16.507,14.121L17.531,16.941C18.909,16.44 20.434,16.176 21.989,16.176L21.989,13.176ZM16.507,14.121C15.141,14.617 13.836,15.296 12.62,16.175L14.377,18.606C15.361,17.896 16.417,17.345 17.53,16.941L16.507,14.121Z" fill="#1E91B6"/>
<line x1="21.989" y1="22.5" x2="22.006" y2="22.5" stroke="#1E91B6" stroke-width="2" stroke-miterlimit="3.999327" stroke-linecap="round" stroke-linejoin="round"/>
</svg>
