<svg width="40" height="40" viewBox="0 0 40 40" fill="none" xmlns="http://www.w3.org/2000/svg" xmlns:xlink="http://www.w3.org/1999/xlink">
<path d="M19.945,35.834C19.116,35.834 18.445,36.505 18.445,37.334C18.445,38.162 19.116,38.834 19.945,38.834L19.945,35.834ZM19.945,38.834C30.899,38.834 39.778,29.954 39.778,19L36.778,19C36.778,28.297 29.242,35.834 19.945,35.834L19.945,38.834ZM39.778,19C39.778,8.046 30.899,-0.833 19.945,-0.833L19.945,2.167C29.242,2.167 36.778,9.703 36.778,19L39.778,19ZM19.945,-0.833C8.991,-0.833 0.111,8.046 0.111,19L3.111,19C3.111,9.703 10.648,2.167 19.945,2.167L19.945,-0.833ZM0.111,19C0.111,29.954 8.991,38.834 19.945,38.834L19.945,35.834C10.648,35.834 3.111,28.297 3.111,19L0.111,19Z" fill="#1E91B6"/>
<path d="M20,25.75C19.172,25.75 18.5,26.422 18.5,27.25C18.5,28.078 19.172,28.75 20,28.75L20,25.75ZM20,10.75L20,9.25L20,10.75ZM11.75,19L10.25,19L11.75,19ZM20,28.75C22.586,28.75 25.066,27.723 26.894,25.894L24.773,23.773C23.507,25.039 21.79,25.75 20,25.75L20,28.75ZM26.894,25.894C28.723,24.066 29.75,21.586 29.75,19L26.75,19C26.75,20.79 26.039,22.507 24.773,23.773L26.894,25.894ZM29.75,19C29.75,16.414 28.723,13.934 26.894,12.106L24.773,14.227C26.039,15.493 26.75,17.21 26.75,19L29.75,19ZM26.894,12.106C25.066,10.277 22.586,9.25 20,9.25L20,12.25C21.79,12.25 23.507,12.961 24.773,14.227L26.894,12.106ZM20,9.25C17.414,9.25 14.934,10.277 13.106,12.106L15.227,14.227C16.493,12.961 18.21,12.25 20,12.25L20,9.25ZM13.106,12.106C11.277,13.934 10.25,16.414 10.25,19L13.25,19C13.25,17.21 13.961,15.493 15.227,14.227L13.106,12.106ZM10.25,19C10.25,21.586 11.277,24.066 13.106,25.894L15.227,23.773C13.961,22.507 13.25,20.79 13.25,19L10.25,19ZM13.106,25.894C14.934,27.723 17.414,28.75 20,28.75L20,25.75C18.21,25.75 16.493,25.039 15.227,23.773L13.106,25.894Z" fill="#1E91B6"/>
<path d="M8.042,4.977C7.455,4.392 6.505,4.393 5.92,4.98C5.335,5.567 5.337,6.516 5.923,7.101L8.042,4.977ZM12.413,13.573C13,14.158 13.95,14.157 14.535,13.57C15.12,12.983 15.118,12.034 14.532,11.449L12.413,13.573ZM5.923,7.101L12.413,13.573L14.532,11.449L8.042,4.977L5.923,7.101Z" fill="#1E91B6"/>
<path d="M5.924,30.9C5.338,31.485 5.336,32.435 5.921,33.021C6.506,33.608 7.456,33.609 8.043,33.024L5.924,30.9ZM14.533,26.553C15.119,25.968 15.121,25.018 14.536,24.431C13.951,23.845 13.001,23.843 12.414,24.428L14.533,26.553ZM8.043,33.024L14.533,26.553L12.414,24.428L5.924,30.9L8.043,33.024Z" fill="#1E91B6"/>
<path d="M31.866,33.024C32.452,33.609 33.402,33.608 33.987,33.021C34.572,32.435 34.57,31.485 33.984,30.9L31.866,33.024ZM27.494,24.428C26.907,23.843 25.957,23.845 25.373,24.431C24.788,25.018 24.789,25.968 25.376,26.553L27.494,24.428ZM33.984,30.9L27.494,24.428L25.376,26.553L31.866,33.024L33.984,30.9Z" fill="#1E91B6"/>
<path d="M33.984,7.101C34.57,6.516 34.572,5.567 33.987,4.98C33.402,4.393 32.452,4.392 31.865,4.977L33.984,7.101ZM25.375,11.449C24.789,12.034 24.787,12.983 25.372,13.57C25.957,14.157 26.907,14.158 27.494,13.573L25.375,11.449ZM31.865,4.977L25.375,11.449L27.494,13.573L33.984,7.101L31.865,4.977Z" fill="#1E91B6"/>
</svg>
