<svg width="40" height="38" viewBox="0 0 40 38" fill="none" xmlns="http://www.w3.org/2000/svg" xmlns:xlink="http://www.w3.org/1999/xlink">
<path d="M17.396,35.042L18.457,33.981L18.39,33.914L18.315,33.856L17.396,35.042ZM32.98,32.292L31.555,31.823L31.538,31.875L31.524,31.928L32.98,32.292ZM37.38,18.908L35.967,18.404L35.961,18.422L35.955,18.44L37.38,18.908ZM24.73,11.942L23.247,11.71L23.245,11.73L24.73,11.942ZM25.646,6.075L24.182,5.75L24.172,5.796L24.164,5.843L25.646,6.075ZM23.263,2.042L22.736,3.446L22.762,3.456L22.789,3.465L23.263,2.042ZM19.23,3.325L20.475,4.162L20.478,4.157L19.23,3.325ZM10.795,31.828L16.478,36.228L18.315,33.856L12.631,29.456L10.795,31.828ZM16.336,36.102C16.969,36.736 17.855,37.099 18.588,37.309C19.359,37.529 20.185,37.642 20.88,37.642L20.88,34.642C20.474,34.642 19.926,34.571 19.413,34.424C18.863,34.267 18.557,34.081 18.457,33.981L16.336,36.102ZM20.88,37.642L27.846,37.642L27.846,34.642L20.88,34.642L20.88,37.642ZM27.846,37.642C29.306,37.642 30.756,37.102 31.918,36.252C33.08,35.402 34.058,34.161 34.435,32.655L31.524,31.928C31.351,32.622 30.863,33.307 30.146,33.831C29.428,34.356 28.587,34.642 27.846,34.642L27.846,37.642ZM34.405,32.76L38.805,19.377L35.955,18.44L31.555,31.823L34.405,32.76ZM38.792,19.413C39.399,17.715 39.192,15.99 38.221,14.673C37.257,13.365 35.677,12.642 33.896,12.642L33.896,15.642C34.866,15.642 35.486,16.019 35.805,16.452C36.118,16.876 36.277,17.535 35.967,18.404L38.792,19.413ZM33.896,12.642L26.563,12.642L26.563,15.642L33.896,15.642L33.896,12.642ZM26.563,12.642C26.433,12.642 26.342,12.59 26.29,12.53C26.248,12.483 26.182,12.378 26.215,12.154L23.245,11.73C22.929,13.942 24.576,15.642 26.563,15.642L26.563,12.642ZM26.212,12.173L27.128,6.307L24.164,5.843L23.248,11.71L26.212,12.173ZM27.111,6.4C27.656,3.946 26.063,1.394 23.737,0.619L22.789,3.465C23.763,3.789 24.37,4.904 24.182,5.75L27.111,6.4ZM23.79,0.637C22.662,0.214 21.471,0.307 20.484,0.646C19.507,0.982 18.566,1.616 17.982,2.493L20.478,4.157C20.626,3.934 20.969,3.651 21.459,3.483C21.938,3.318 22.397,3.319 22.736,3.446L23.79,0.637ZM17.985,2.488L10.468,13.672L12.958,15.345L20.475,4.162L17.985,2.488Z" fill="#1E91B6"/>
<path d="M3.863,30.642L3.863,12.675L0.863,12.675L0.863,30.642L3.863,30.642ZM3.863,12.675C3.863,11.561 4.108,11.205 4.252,11.073C4.424,10.914 4.862,10.692 6.03,10.692L6.03,7.692C4.632,7.692 3.236,7.928 2.217,8.869C1.168,9.836 0.863,11.223 0.863,12.675L3.863,12.675ZM6.03,10.692L7.863,10.692L7.863,7.692L6.03,7.692L6.03,10.692ZM7.863,10.692C9.032,10.692 9.469,10.914 9.642,11.073C9.785,11.205 10.03,11.561 10.03,12.675L13.03,12.675C13.03,11.223 12.725,9.836 11.677,8.869C10.658,7.928 9.262,7.692 7.863,7.692L7.863,10.692ZM10.03,12.675L10.03,30.642L13.03,30.642L13.03,12.675L10.03,12.675ZM10.03,30.642C10.03,31.756 9.785,32.111 9.642,32.244C9.469,32.403 9.032,32.625 7.863,32.625L7.863,35.625C9.262,35.625 10.658,35.389 11.677,34.448C12.725,33.48 13.03,32.094 13.03,30.642L10.03,30.642ZM7.863,32.625L6.03,32.625L6.03,35.625L7.863,35.625L7.863,32.625ZM6.03,32.625C4.862,32.625 4.424,32.403 4.252,32.244C4.108,32.111 3.863,31.756 3.863,30.642L0.863,30.642C0.863,32.094 1.168,33.48 2.217,34.448C3.236,35.389 4.632,35.625 6.03,35.625L6.03,32.625Z" fill="#1E91B6"/>
</svg>
