<svg width="44" height="32" viewBox="0 0 44 32" fill="none" xmlns="http://www.w3.org/2000/svg" xmlns:xlink="http://www.w3.org/1999/xlink">
<path d="M2,18C1.172,18 0.5,18.672 0.5,19.5C0.5,20.328 1.172,21 2,21L2,18ZM29.5,24C29.5,23.172 28.829,22.5 28,22.5C27.172,22.5 26.5,23.172 26.5,24L29.5,24ZM2,21L35,21L35,18L2,18L2,21ZM35,21C36.636,21 38.063,21.501 39.048,22.239C40.033,22.978 40.5,23.882 40.5,24.75L43.5,24.75C43.5,22.723 42.398,21.002 40.848,19.839C39.297,18.677 37.225,18 35,18L35,21ZM40.5,24.75C40.5,25.618 40.033,26.522 39.048,27.261C38.063,27.999 36.636,28.5 35,28.5L35,31.5C37.225,31.5 39.297,30.823 40.848,29.661C42.398,28.498 43.5,26.777 43.5,24.75L40.5,24.75ZM35,28.5C33.365,28.5 31.937,27.999 30.953,27.261C29.968,26.522 29.5,25.618 29.5,24.75L26.5,24.75C26.5,26.777 27.603,28.498 29.153,29.661C30.703,30.823 32.776,31.5 35,31.5L35,28.5ZM29.5,24.75L29.5,24L26.5,24L26.5,24.75L29.5,24.75Z" fill="#1E91B6"/>
<path d="M2,13.5C1.172,13.5 0.5,14.172 0.5,15C0.5,15.829 1.172,16.5 2,16.5L2,13.5ZM35,4.5L35,3L34.997,3L35,4.5ZM28,9.75L26.5,9.745L26.5,9.75L28,9.75ZM26.5,10.5C26.5,11.329 27.172,12 28,12C28.829,12 29.5,11.329 29.5,10.5L26.5,10.5ZM2,16.5L35,16.5L35,13.5L2,13.5L2,16.5ZM35,16.5C37.216,16.5 39.288,15.823 40.839,14.662C42.39,13.501 43.5,11.781 43.5,9.75L40.5,9.75C40.5,10.615 40.031,11.519 39.042,12.26C38.053,13 36.625,13.5 35,13.5L35,16.5ZM43.5,9.75C43.5,7.726 42.388,6.006 40.84,4.845C39.29,3.683 37.218,3 35,3L35,6C36.623,6 38.051,6.503 39.04,7.245C40.032,7.989 40.5,8.894 40.5,9.75L43.5,9.75ZM34.997,3C32.863,3.005 30.76,3.639 29.156,4.842L30.956,7.242C31.976,6.478 33.428,6.004 35.004,6L34.997,3ZM29.156,4.842C27.545,6.051 26.508,7.796 26.5,9.745L29.5,9.756C29.504,8.922 29.945,8.001 30.956,7.242L29.156,4.842ZM26.5,9.75L26.5,10.5L29.5,10.5L29.5,9.75L26.5,9.75Z" fill="#1E91B6"/>
<path d="M2,9C1.172,9 0.5,9.672 0.5,10.5C0.5,11.328 1.172,12 2,12L2,9ZM9.74,7.035C9.74,7.863 10.412,8.535 11.24,8.535C12.069,8.535 12.74,7.863 12.74,7.035L9.74,7.035ZM2,12L16.62,12L16.62,9L2,9L2,12ZM16.62,12C17.9,12 19.173,11.717 20.281,11.161L18.937,8.479C18.277,8.81 17.469,9 16.62,9L16.62,12ZM20.281,11.161C21.389,10.606 22.326,9.781 22.904,8.734L20.278,7.284C20.041,7.712 19.6,8.147 18.937,8.479L20.281,11.161ZM22.904,8.734C23.49,7.674 23.658,6.466 23.347,5.293L20.447,6.062C20.551,6.455 20.506,6.87 20.278,7.284L22.904,8.734ZM23.347,5.293C23.039,4.134 22.301,3.144 21.325,2.412L19.525,4.812C20.053,5.208 20.34,5.657 20.447,6.062L23.347,5.293ZM21.325,2.412C20.35,1.681 19.151,1.212 17.891,1.024L17.449,3.991C18.276,4.115 18.995,4.414 19.525,4.812L21.325,2.412ZM17.891,1.024C16.63,0.836 15.321,0.931 14.117,1.305L15.007,4.17C15.769,3.933 16.622,3.868 17.449,3.991L17.891,1.024ZM14.117,1.305C12.915,1.678 11.827,2.328 11.027,3.226L13.267,5.221C13.65,4.792 14.242,4.407 15.007,4.17L14.117,1.305ZM11.027,3.226C10.221,4.13 9.74,5.256 9.74,6.465L12.74,6.465C12.74,6.078 12.891,5.644 13.267,5.221L11.027,3.226ZM9.74,6.465L9.74,7.035L12.74,7.035L12.74,6.465L9.74,6.465Z" fill="#1E91B6"/>
</svg>
