<svg width="36" height="40" viewBox="0 0 36 40" fill="none" xmlns="http://www.w3.org/2000/svg" xmlns:xlink="http://www.w3.org/1999/xlink">
<path d="M18,30.334C17.172,30.334 16.5,31.005 16.5,31.834C16.5,32.662 17.172,33.334 18,33.334L18,30.334ZM25.333,24.501L26.833,24.501L25.333,24.501ZM18,17.167L18,15.667L18,17.167ZM10.667,24.501L9.167,24.501L10.667,24.501ZM18,33.334C20.343,33.334 22.59,32.403 24.246,30.747L22.125,28.625C21.031,29.719 19.547,30.334 18,30.334L18,33.334ZM24.246,30.747C25.903,29.09 26.833,26.843 26.833,24.501L23.833,24.501C23.833,26.048 23.219,27.531 22.125,28.625L24.246,30.747ZM26.833,24.501C26.833,22.158 25.903,19.911 24.246,18.254L22.125,20.376C23.219,21.47 23.833,22.953 23.833,24.501L26.833,24.501ZM24.246,18.254C22.59,16.598 20.343,15.667 18,15.667L18,18.667C19.547,18.667 21.031,19.282 22.125,20.376L24.246,18.254ZM18,15.667C15.657,15.667 13.411,16.598 11.754,18.254L13.875,20.376C14.969,19.282 16.453,18.667 18,18.667L18,15.667ZM11.754,18.254C10.097,19.911 9.167,22.158 9.167,24.501L12.167,24.501C12.167,22.953 12.781,21.47 13.875,20.376L11.754,18.254ZM9.167,24.501C9.167,26.843 10.097,29.09 11.754,30.747L13.875,28.625C12.781,27.531 12.167,26.048 12.167,24.501L9.167,24.501ZM11.754,30.747C13.411,32.403 15.657,33.334 18,33.334L18,30.334C16.453,30.334 14.969,29.719 13.875,28.625L11.754,30.747Z" fill="#1E91B6"/>
<path d="M16.201,23.44C15.615,22.854 14.666,22.854 14.08,23.44C13.494,24.026 13.494,24.976 14.08,25.561L16.201,23.44ZM16.332,25.692L17.393,24.632L17.393,24.632L16.332,25.692ZM17.597,25.711L16.581,24.608C16.566,24.621 16.551,24.636 16.537,24.65L17.597,25.711ZM21.877,23.807C22.486,23.246 22.525,22.297 21.964,21.688C21.402,21.078 20.454,21.04 19.844,21.601L21.877,23.807ZM14.08,25.561L15.272,26.753L17.393,24.632L16.201,23.44L14.08,25.561ZM15.272,26.753C16.165,27.647 17.684,27.745 18.658,26.771L16.537,24.65C16.814,24.373 17.196,24.435 17.393,24.632L15.272,26.753ZM18.614,26.814L21.877,23.807L19.844,21.601L16.581,24.608L18.614,26.814Z" fill="#1E91B6"/>
<path d="M32.575,30.789L31.086,30.603L31.084,30.629L32.575,30.789ZM33.95,19.789L35.439,19.975L35.441,19.954L33.95,19.789ZM2.05,19.789L0.559,19.954L0.562,19.975L2.05,19.789ZM3.425,30.789L4.917,30.629L4.914,30.603L3.425,30.789ZM12.5,38.834L23.5,38.834L23.5,35.834L12.5,35.834L12.5,38.834ZM23.5,38.834C27.339,38.834 29.965,38.073 31.669,36.516C33.386,34.947 33.864,32.841 34.067,30.949L31.084,30.629C30.901,32.33 30.526,33.497 29.645,34.301C28.751,35.119 27.031,35.834 23.5,35.834L23.5,38.834ZM34.064,30.975L35.439,19.975L32.462,19.603L31.087,30.603L34.064,30.975ZM35.441,19.954C35.702,17.6 35.555,15.04 33.911,13.085C32.253,11.113 29.424,10.167 25.333,10.167L25.333,13.167C29.072,13.167 30.798,14.045 31.615,15.016C32.446,16.004 32.694,17.505 32.459,19.624L35.441,19.954ZM25.333,10.167L10.667,10.167L10.667,13.167L25.333,13.167L25.333,10.167ZM10.667,10.167C6.577,10.167 3.748,11.113 2.089,13.085C0.445,15.04 0.299,17.6 0.559,19.954L3.541,19.624C3.307,17.505 3.554,16.004 4.385,15.016C5.202,14.045 6.929,13.167 10.667,13.167L10.667,10.167ZM0.562,19.975L1.937,30.975L4.914,30.603L3.539,19.603L0.562,19.975ZM1.934,30.949C2.137,32.841 2.614,34.947 4.332,36.516C6.036,38.073 8.661,38.834 12.5,38.834L12.5,35.834C8.969,35.834 7.25,35.119 6.355,34.301C5.474,33.497 5.099,32.33 4.917,30.629L1.934,30.949Z" fill="#1E91B6"/>
<path d="M8.25,11.062C8.25,11.891 8.922,12.562 9.75,12.562C10.579,12.562 11.25,11.891 11.25,11.062L8.25,11.062ZM17.194,0.722L17.333,2.216L17.34,2.215L17.194,0.722ZM26.25,8.935L24.75,8.935L24.75,8.935L26.25,8.935ZM24.75,11.465C24.75,12.294 25.422,12.965 26.25,12.965C27.079,12.965 27.75,12.294 27.75,11.465L24.75,11.465ZM11.25,11.062L11.25,9.284L8.25,9.284L8.25,11.062L11.25,11.062ZM11.25,9.284C11.25,5.844 14.065,2.521 17.333,2.216L17.054,-0.771C12.072,-0.306 8.25,4.474 8.25,9.284L11.25,9.284ZM17.34,2.215C18.278,2.123 19.225,2.228 20.119,2.524L21.061,-0.324C19.769,-0.752 18.401,-0.904 17.047,-0.771L17.34,2.215ZM20.119,2.524C21.014,2.82 21.837,3.3 22.535,3.933L24.55,1.71C23.542,0.796 22.353,0.103 21.061,-0.324L20.119,2.524ZM22.535,3.933C23.233,4.566 23.79,5.338 24.172,6.199L26.915,4.984C26.364,3.74 25.558,2.625 24.55,1.71L22.535,3.933ZM24.172,6.199C24.554,7.061 24.751,7.993 24.75,8.935L27.75,8.936C27.751,7.575 27.466,6.229 26.915,4.984L24.172,6.199ZM24.75,8.935L24.75,11.465L27.75,11.465L27.75,8.935L24.75,8.935Z" fill="#1E91B6"/>
</svg>
