<svg width="44" height="32" viewBox="0 0 44 32" fill="none" xmlns="http://www.w3.org/2000/svg" xmlns:xlink="http://www.w3.org/1999/xlink">
<path d="M8.26,5.385L6.815,4.98L6.815,4.983L8.26,5.385ZM6,13.5L4.555,13.098C4.429,13.549 4.522,14.034 4.805,14.407C5.089,14.781 5.531,15 6,15L6,13.5ZM38,13.5L38,15C38.469,15 38.91,14.781 39.194,14.407C39.478,14.034 39.57,13.549 39.445,13.098L38,13.5ZM35.74,5.385L37.185,4.983L37.184,4.98L35.74,5.385ZM29.02,-0.255C28.191,-0.255 27.52,0.417 27.52,1.245C27.52,2.073 28.191,2.745 29.02,2.745L29.02,-0.255ZM29.02,-0.255L14.98,-0.255L14.98,2.745L29.02,2.745L29.02,-0.255ZM14.98,-0.255C12.334,-0.255 10.43,0.234 9.079,1.27C7.709,2.321 7.162,3.745 6.815,4.98L9.704,5.79C9.997,4.745 10.32,4.099 10.905,3.65C11.51,3.186 12.645,2.745 14.98,2.745L14.98,-0.255ZM6.815,4.983L4.555,13.098L7.445,13.902L9.705,5.787L6.815,4.983ZM6,15L38,15L38,12L6,12L6,15ZM39.445,13.098L37.185,4.983L34.295,5.787L36.555,13.902L39.445,13.098ZM37.184,4.98C36.837,3.745 36.29,2.321 34.92,1.27C33.57,0.234 31.665,-0.255 29.02,-0.255L29.02,2.745C31.354,2.745 32.49,3.186 33.094,3.65C33.679,4.099 34.002,4.745 34.295,5.79L37.184,4.98Z" fill="#1E91B6"/>
<path d="M41.98,26.73L40.491,26.913L40.492,26.917L41.98,26.73ZM31.32,28.455L32.691,27.846L32.691,27.846L31.32,28.455ZM30.92,27.555L32.291,26.946L32.285,26.933L30.92,27.555ZM13.08,27.555L14.451,28.164L14.451,28.164L13.08,27.555ZM12.68,28.455L11.309,27.846L11.309,27.846L12.68,28.455ZM2.02,26.73L3.508,26.917L3.509,26.913L2.02,26.73ZM3.14,17.595L1.651,17.41L1.651,17.412L3.14,17.595ZM40.86,17.595L42.349,17.412L42.348,17.41L40.86,17.595ZM40.492,26.917C40.522,27.158 40.433,27.499 39.991,27.855C39.545,28.214 38.818,28.5 37.92,28.5L37.92,31.5C39.422,31.5 40.835,31.028 41.873,30.191C42.917,29.351 43.658,28.057 43.468,26.543L40.492,26.917ZM37.92,28.5L34.16,28.5L34.16,31.5L37.92,31.5L37.92,28.5ZM34.16,28.5C33.197,28.5 32.958,28.338 32.942,28.326C32.933,28.32 32.904,28.325 32.691,27.846L29.949,29.064C30.116,29.44 30.426,30.218 31.203,30.77C31.972,31.317 32.963,31.5 34.16,31.5L34.16,28.5ZM32.691,27.846L32.291,26.946L29.549,28.164L29.949,29.064L32.691,27.846ZM32.285,26.933C32.037,26.388 31.659,25.467 30.744,24.833C29.84,24.207 28.649,24 27.12,24L27.12,27C28.471,27 28.9,27.205 29.036,27.3C29.161,27.386 29.243,27.492 29.555,28.177L32.285,26.933ZM27.12,24L16.88,24L16.88,27L27.12,27L27.12,24ZM16.88,24C15.319,24 14.122,24.244 13.221,24.881C12.311,25.525 11.941,26.424 11.709,26.946L14.451,28.164C14.719,27.561 14.809,27.433 14.954,27.33C15.108,27.221 15.561,27 16.88,27L16.88,24ZM11.709,26.946L11.309,27.846L14.051,29.064L14.451,28.164L11.709,26.946ZM11.309,27.846C11.096,28.325 11.067,28.32 11.058,28.326C11.042,28.338 10.803,28.5 9.84,28.5L9.84,31.5C11.037,31.5 12.028,31.317 12.797,30.77C13.573,30.218 13.884,29.44 14.051,29.064L11.309,27.846ZM9.84,28.5L6.08,28.5L6.08,31.5L9.84,31.5L9.84,28.5ZM6.08,28.5C5.182,28.5 4.455,28.214 4.008,27.855C3.567,27.499 3.478,27.158 3.508,26.917L0.532,26.543C0.342,28.057 1.083,29.351 2.126,30.191C3.165,31.028 4.578,31.5 6.08,31.5L6.08,28.5ZM3.509,26.913L4.629,17.778L1.651,17.412L0.531,26.547L3.509,26.913ZM4.628,17.78C4.767,16.667 4.944,16.165 5.327,15.825C5.74,15.457 6.725,15 9.24,15L9.24,12C6.515,12 4.59,12.465 3.333,13.583C2.045,14.728 1.793,16.273 1.651,17.41L4.628,17.78ZM9.24,15L34.76,15L34.76,12L9.24,12L9.24,15ZM34.76,15C37.275,15 38.26,15.457 38.673,15.825C39.055,16.165 39.233,16.667 39.371,17.78L42.348,17.41C42.207,16.273 41.954,14.728 40.667,13.583C39.41,12.465 37.485,12 34.76,12L34.76,15ZM39.371,17.778L40.491,26.913L43.469,26.547L42.349,17.412L39.371,17.778Z" fill="#1E91B6"/>
<line x1="4" y1="7.5" x2="6" y2="7.5" stroke="#1E91B6" stroke-width="1.5" stroke-miterlimit="3.999327" stroke-linecap="round" stroke-linejoin="round"/>
<line x1="38" y1="7.5" x2="40" y2="7.5" stroke="#1E91B6" stroke-width="1.5" stroke-miterlimit="3.999327" stroke-linecap="round" stroke-linejoin="round"/>
<line x1="20.5" y1="1.5" x2="20.5" y2="4.5" stroke="#1E91B6" stroke-width="1.5" stroke-miterlimit="3.999327" stroke-linecap="round" stroke-linejoin="round"/>
<line x1="19" y1="3" x2="25" y2="3" stroke="#1E91B6" stroke-width="1.5" stroke-miterlimit="3.999327" stroke-linecap="round" stroke-linejoin="round"/>
<line x1="10" y1="18" x2="16" y2="18" stroke="#1E91B6" stroke-width="1.5" stroke-miterlimit="3.999327" stroke-linecap="round" stroke-linejoin="round"/>
<line x1="28" y1="18" x2="34" y2="18" stroke="#1E91B6" stroke-width="1.5" stroke-miterlimit="3.999327" stroke-linecap="round" stroke-linejoin="round"/>
</svg>
