<svg width="36" height="36" viewBox="0 0 36 36" fill="none" xmlns="http://www.w3.org/2000/svg" xmlns:xlink="http://www.w3.org/1999/xlink">
<path d="M18,15.75C19.243,15.75 20.25,14.743 20.25,13.5C20.25,12.257 19.243,11.25 18,11.25C16.757,11.25 15.75,12.257 15.75,13.5C15.75,14.743 16.757,15.75 18,15.75Z" fill="#112211"/>
<path d="M18,2.25C11.797,2.25 6.75,7.077 6.75,13.008C6.75,15.832 8.037,19.588 10.576,24.172C12.615,27.852 14.974,31.18 16.201,32.836C16.409,33.119 16.68,33.349 16.993,33.508C17.306,33.666 17.651,33.749 18.002,33.749C18.353,33.749 18.699,33.666 19.012,33.508C19.324,33.349 19.595,33.119 19.803,32.836C21.028,31.18 23.389,27.852 25.428,24.172C27.963,19.59 29.25,15.834 29.25,13.008C29.25,7.077 24.203,2.25 18,2.25ZM18,18C17.11,18 16.24,17.736 15.5,17.242C14.76,16.747 14.183,16.044 13.843,15.222C13.502,14.4 13.413,13.495 13.586,12.622C13.76,11.749 14.189,10.947 14.818,10.318C15.447,9.689 16.249,9.26 17.122,9.086C17.995,8.913 18.9,9.002 19.722,9.343C20.544,9.683 21.247,10.26 21.742,11C22.236,11.74 22.5,12.61 22.5,13.5C22.499,14.693 22.024,15.837 21.181,16.681C20.337,17.524 19.193,17.999 18,18Z" fill="#112211"/>
</svg>
