<svg width="34" height="32" viewBox="0 0 34 32" fill="none" xmlns="http://www.w3.org/2000/svg" xmlns:xlink="http://www.w3.org/1999/xlink">
<path d="M16.001,7.25L14.659,7.921C14.913,8.429 15.433,8.75 16.001,8.75C16.569,8.75 17.088,8.429 17.342,7.921L16.001,7.25ZM1.001,9.813L-0.499,9.798L-0.499,9.798L1.001,9.813ZM15.298,29.534L16.141,28.293L16.14,28.292L15.298,29.534ZM16.704,29.534L15.861,28.293L15.86,28.293L16.704,29.534ZM31.001,9.813L32.501,9.798L32.501,9.798L31.001,9.813ZM23.573,0.75C22.744,0.75 22.073,1.422 22.073,2.25C22.073,3.078 22.744,3.75 23.573,3.75L23.573,0.75ZM23.573,0.75C20.505,0.75 18.254,2.269 16.828,3.686C16.112,4.397 15.579,5.104 15.224,5.635C15.046,5.901 14.91,6.126 14.816,6.29C14.769,6.372 14.733,6.438 14.707,6.487C14.694,6.512 14.683,6.532 14.675,6.547C14.671,6.555 14.668,6.562 14.665,6.567C14.664,6.57 14.663,6.572 14.662,6.574C14.661,6.575 14.661,6.576 14.66,6.577C14.66,6.577 14.66,6.578 14.66,6.578C14.659,6.579 14.659,6.579 16.001,7.25C17.342,7.921 17.342,7.921 17.342,7.922C17.342,7.922 17.342,7.922 17.341,7.923C17.341,7.923 17.341,7.924 17.341,7.924C17.34,7.925 17.34,7.926 17.34,7.926C17.34,7.926 17.34,7.926 17.341,7.924C17.343,7.92 17.347,7.912 17.353,7.9C17.366,7.876 17.389,7.835 17.42,7.78C17.483,7.67 17.582,7.505 17.717,7.303C17.99,6.896 18.399,6.353 18.942,5.814C20.033,4.73 21.568,3.75 23.573,3.75L23.573,0.75ZM16.001,7.25C17.342,6.579 17.342,6.579 17.342,6.578C17.342,6.578 17.341,6.577 17.341,6.577C17.341,6.576 17.34,6.575 17.34,6.574C17.339,6.572 17.338,6.57 17.336,6.567C17.334,6.562 17.33,6.555 17.326,6.547C17.318,6.532 17.308,6.512 17.295,6.487C17.269,6.438 17.232,6.372 17.185,6.29C17.092,6.126 16.956,5.901 16.778,5.635C16.423,5.104 15.89,4.397 15.174,3.686C13.747,2.269 11.497,0.75 8.429,0.75L8.429,3.75C10.433,3.75 11.968,4.73 13.06,5.814C13.603,6.353 14.012,6.896 14.284,7.303C14.42,7.505 14.519,7.67 14.582,7.78C14.613,7.835 14.635,7.876 14.648,7.9C14.655,7.912 14.659,7.92 14.661,7.924C14.662,7.926 14.662,7.926 14.662,7.926C14.662,7.926 14.661,7.925 14.661,7.924C14.661,7.924 14.66,7.923 14.66,7.923C14.66,7.922 14.66,7.922 14.66,7.922C14.659,7.921 14.659,7.921 16.001,7.25ZM8.429,0.75C3.429,0.75 -0.449,4.917 -0.499,9.798L2.501,9.829C2.535,6.48 5.185,3.75 8.429,3.75L8.429,0.75ZM-0.499,9.798C-0.594,19.215 6.973,25.697 14.455,30.775L16.14,28.292C8.58,23.161 2.424,17.494 2.501,9.828L-0.499,9.798ZM14.454,30.774C14.91,31.084 15.449,31.25 16.001,31.25L16.001,28.25C16.051,28.25 16.1,28.265 16.141,28.293L14.454,30.774ZM16.001,31.25C16.553,31.25 17.091,31.084 17.548,30.774L15.86,28.293C15.902,28.265 15.951,28.25 16.001,28.25L16.001,31.25ZM17.546,30.775C25.027,25.697 32.595,19.215 32.501,9.798L29.501,9.828C29.577,17.494 23.421,23.161 15.861,28.293L17.546,30.775ZM32.501,9.798C32.451,4.917 28.572,0.75 23.573,0.75L23.573,3.75C26.817,3.75 29.467,6.48 29.501,9.829L32.501,9.798Z" fill="#112211"/>
</svg>
