<svg width="32" height="34" viewBox="0 0 32 34" fill="none" xmlns="http://www.w3.org/2000/svg" xmlns:xlink="http://www.w3.org/1999/xlink">
<path d="M26,22.25C25.327,22.25 24.66,22.386 24.041,22.65C23.421,22.915 22.862,23.302 22.397,23.789L10.834,17.284C11.058,16.442 11.058,15.557 10.834,14.716L22.397,8.211C23.239,9.084 24.37,9.62 25.579,9.718C26.788,9.817 27.991,9.472 28.963,8.747C29.936,8.022 30.61,6.967 30.861,5.781C31.112,4.594 30.921,3.357 30.325,2.301C29.729,1.244 28.768,0.442 27.623,0.043C26.477,-0.355 25.226,-0.323 24.103,0.135C22.98,0.593 22.062,1.444 21.522,2.53C20.982,3.616 20.856,4.862 21.168,6.034L9.605,12.539C8.915,11.819 8.024,11.322 7.049,11.112C6.074,10.902 5.058,10.989 4.132,11.361C3.206,11.733 2.413,12.374 1.854,13.2C1.295,14.027 0.997,15.002 0.997,16C0.997,16.998 1.295,17.973 1.854,18.799C2.413,19.626 3.206,20.267 4.132,20.639C5.058,21.011 6.074,21.098 7.049,20.888C8.024,20.678 8.915,20.181 9.605,19.461L21.168,25.966C20.9,26.976 20.955,28.043 21.324,29.02C21.694,29.997 22.36,30.833 23.229,31.412C24.099,31.991 25.127,32.283 26.171,32.247C27.215,32.211 28.221,31.85 29.049,31.213C29.876,30.577 30.484,29.697 30.786,28.697C31.089,27.698 31.07,26.629 30.734,25.64C30.398,24.651 29.76,23.793 28.911,23.185C28.062,22.577 27.044,22.25 26,22.25Z" fill="#000000" stroke="#112211" stroke-width="0.047" stroke-miterlimit="3.999327"/>
</svg>
