<svg width="30" height="30" viewBox="0 0 30 30" fill="none" xmlns="http://www.w3.org/2000/svg" xmlns:xlink="http://www.w3.org/1999/xlink">
<path d="M22.625,29C22.414,29.001 22.209,28.935 22.038,28.812L14,22.985L5.962,28.812C5.79,28.937 5.583,29.004 5.371,29.003C5.159,29.002 4.953,28.934 4.782,28.808C4.611,28.682 4.485,28.505 4.421,28.303C4.357,28.101 4.36,27.883 4.428,27.682L7.563,18.397L-0.563,12.825C-0.738,12.704 -0.871,12.531 -0.942,12.329C-1.012,12.128 -1.016,11.909 -0.953,11.705C-0.89,11.502 -0.764,11.323 -0.592,11.196C-0.421,11.069 -0.213,11.001 0,11L10.024,11L13.049,1.691C13.114,1.49 13.241,1.314 13.412,1.19C13.583,1.066 13.789,0.999 14,0.999C14.211,0.999 14.417,1.066 14.588,1.19C14.759,1.314 14.886,1.49 14.951,1.691L17.976,11.003L28,11.003C28.214,11.003 28.422,11.071 28.594,11.198C28.766,11.325 28.892,11.503 28.956,11.707C29.019,11.911 29.015,12.13 28.945,12.332C28.875,12.533 28.742,12.707 28.566,12.828L20.437,18.397L23.571,27.68C23.621,27.83 23.636,27.99 23.612,28.147C23.589,28.304 23.528,28.453 23.436,28.582C23.344,28.711 23.222,28.816 23.081,28.889C22.94,28.962 22.784,29 22.625,29Z" fill="#000"/>
</svg>
