<svg width="38" height="38" viewBox="0 0 38 38" fill="none" xmlns="http://www.w3.org/2000/svg" xmlns:xlink="http://www.w3.org/1999/xlink">
<path d="M34.196,0.086L1.986,0.086C1.494,0.119 1.031,0.329 0.683,0.678C0.334,1.026 0.124,1.49 0.091,1.981L0.091,34.191C0.094,34.693 0.294,35.173 0.649,35.528C1.004,35.883 1.484,36.083 1.986,36.086L19.228,36.086L19.228,22.065L14.679,22.065L14.679,16.76L19.416,16.76L19.416,12.781C19.314,11.827 19.424,10.862 19.737,9.955C20.051,9.048 20.561,8.221 21.23,7.534C21.9,6.846 22.713,6.315 23.611,5.977C24.51,5.64 25.471,5.504 26.428,5.581C28.323,5.581 30.028,5.77 30.596,5.77L30.596,10.697L27.754,10.697C25.479,10.697 25.1,11.835 25.1,13.351L25.1,16.76L30.405,16.76L29.647,22.256L24.912,22.256L24.912,36.086L34.196,36.086C34.697,36.083 35.178,35.883 35.533,35.528C35.887,35.173 36.088,34.693 36.091,34.191L36.091,1.981C36.058,1.49 35.847,1.026 35.499,0.678C35.15,0.329 34.687,0.119 34.196,0.086L34.196,0.086Z" fill="#FFFFFF"/>
</svg>
