<svg width="36" height="36" viewBox="0 0 36 36" fill="none" xmlns="http://www.w3.org/2000/svg" xmlns:xlink="http://www.w3.org/1999/xlink">
<path d="M33.613,-0.863L1.403,-0.863C0.911,-0.83 0.448,-0.62 0.1,-0.271C-0.249,0.077 -0.459,0.54 -0.492,1.032L-0.492,33.242C-0.489,33.743 -0.289,34.224 0.066,34.579C0.421,34.933 0.901,35.134 1.403,35.137L18.645,35.137L18.645,21.116L14.096,21.116L14.096,15.811L18.833,15.811L18.833,11.832C18.731,10.878 18.841,9.913 19.154,9.006C19.468,8.099 19.978,7.272 20.647,6.584C21.317,5.897 22.13,5.365 23.028,5.028C23.927,4.69 24.888,4.555 25.845,4.632C27.74,4.632 29.445,4.82 30.013,4.82L30.013,9.748L27.171,9.748C24.896,9.748 24.517,10.885 24.517,12.402L24.517,15.811L29.822,15.811L29.064,21.306L24.329,21.306L24.329,35.137L33.613,35.137C34.114,35.134 34.595,34.933 34.95,34.579C35.304,34.224 35.505,33.743 35.508,33.242L35.508,1.032C35.475,0.54 35.264,0.077 34.916,-0.271C34.567,-0.62 34.104,-0.83 33.613,-0.863L33.613,-0.863Z" fill="#FFFFFF"/>
</svg>
