<svg width="42" height="34" viewBox="0 0 42 34" fill="none" xmlns="http://www.w3.org/2000/svg" xmlns:xlink="http://www.w3.org/1999/xlink">
<path d="M41.508,3.162C40.934,4.02 40.284,4.82 39.56,5.563C38.835,6.305 38.049,6.983 37.201,7.596C37.215,7.787 37.225,7.974 37.232,8.158C37.239,8.342 37.242,8.529 37.242,8.72C37.242,10.436 37.058,12.132 36.688,13.807C36.319,15.483 35.786,17.104 35.089,18.67C34.077,20.945 32.812,22.978 31.295,24.77C29.777,26.561 28.058,28.076 26.137,29.316C24.216,30.555 22.121,31.502 19.852,32.156C17.582,32.81 15.203,33.137 12.715,33.137C10.363,33.137 8.07,32.813 5.834,32.166C3.599,31.519 1.49,30.555 -0.492,29.275C0.178,29.357 0.861,29.398 1.559,29.398C3.514,29.398 5.404,29.084 7.229,28.458C9.054,27.831 10.732,26.918 12.264,25.72C11.348,25.706 10.466,25.553 9.618,25.26C8.77,24.967 7.995,24.558 7.291,24.034C6.586,23.51 5.971,22.886 5.445,22.164C4.918,21.442 4.512,20.646 4.225,19.774C4.498,19.815 4.768,19.849 5.035,19.876C5.301,19.903 5.571,19.917 5.845,19.917C6.61,19.917 7.362,19.815 8.101,19.61C7.089,19.406 6.163,19.045 5.322,18.527C4.481,18.01 3.753,17.38 3.138,16.637C2.522,15.895 2.044,15.057 1.702,14.124C1.36,13.191 1.189,12.214 1.189,11.192L1.189,11.09C2.393,11.771 3.698,12.132 5.106,12.173C4.505,11.764 3.968,11.298 3.497,10.773C3.025,10.249 2.625,9.68 2.297,9.067C1.969,8.454 1.716,7.807 1.538,7.126C1.36,6.445 1.271,5.743 1.271,5.021C1.271,4.259 1.367,3.513 1.559,2.784C1.75,2.055 2.044,1.364 2.44,0.71C3.534,2.059 4.751,3.268 6.091,4.337C7.431,5.406 8.856,6.322 10.367,7.085C11.877,7.848 13.46,8.451 15.114,8.893C16.769,9.336 18.464,9.598 20.2,9.68C20.118,9.367 20.06,9.043 20.026,8.709C19.992,8.376 19.975,8.045 19.975,7.718C19.975,6.533 20.2,5.42 20.651,4.378C21.103,3.336 21.718,2.426 22.497,1.65C23.276,0.873 24.189,0.261 25.235,-0.189C26.281,-0.639 27.398,-0.863 28.588,-0.863C29.791,-0.863 30.936,-0.628 32.023,-0.158C33.11,0.312 34.063,0.982 34.884,1.854C35.854,1.664 36.794,1.395 37.704,1.047C38.613,0.7 39.491,0.274 40.339,-0.23C40.024,0.765 39.542,1.67 38.893,2.488C38.244,3.305 37.468,3.979 36.565,4.511C38.288,4.306 39.936,3.857 41.508,3.162L41.508,3.162Z" fill="#FFFFFF"/>
</svg>
