<svg width="44" height="36" viewBox="0 0 44 36" fill="none" xmlns="http://www.w3.org/2000/svg" xmlns:xlink="http://www.w3.org/1999/xlink">
<path d="M42.091,4.111C41.517,4.969 40.867,5.77 40.143,6.512C39.418,7.254 38.632,7.932 37.784,8.545C37.798,8.736 37.808,8.923 37.815,9.107C37.822,9.291 37.825,9.478 37.825,9.669C37.825,11.385 37.641,13.081 37.271,14.757C36.902,16.432 36.369,18.053 35.672,19.62C34.66,21.894 33.395,23.928 31.878,25.719C30.36,27.51 28.641,29.025 26.72,30.265C24.799,31.505 22.704,32.451 20.435,33.105C18.165,33.759 15.786,34.086 13.298,34.086C10.946,34.086 8.653,33.762 6.417,33.115C4.182,32.468 2.073,31.505 0.091,30.224C0.761,30.306 1.444,30.347 2.142,30.347C4.097,30.347 5.987,30.034 7.812,29.407C9.637,28.78 11.315,27.868 12.847,26.669C11.931,26.655 11.049,26.502 10.201,26.209C9.354,25.916 8.578,25.508 7.874,24.983C7.169,24.459 6.554,23.836 6.028,23.114C5.501,22.392 5.095,21.595 4.808,20.723C5.081,20.764 5.351,20.798 5.618,20.825C5.884,20.852 6.154,20.866 6.428,20.866C7.193,20.866 7.945,20.764 8.684,20.56C7.672,20.355 6.746,19.994 5.905,19.477C5.064,18.959 4.336,18.329 3.721,17.587C3.105,16.844 2.627,16.006 2.285,15.073C1.943,14.14 1.772,13.163 1.772,12.141L1.772,12.039C2.976,12.72 4.281,13.081 5.689,13.122C5.088,12.713 4.551,12.247 4.08,11.722C3.608,11.198 3.208,10.629 2.88,10.016C2.552,9.403 2.299,8.756 2.121,8.075C1.943,7.394 1.854,6.693 1.854,5.971C1.854,5.208 1.95,4.462 2.142,3.733C2.333,3.004 2.627,2.313 3.023,1.659C4.117,3.008 5.334,4.217 6.674,5.286C8.014,6.355 9.439,7.271 10.95,8.034C12.46,8.797 14.043,9.4 15.697,9.843C17.352,10.285 19.047,10.547 20.783,10.629C20.701,10.316 20.643,9.992 20.609,9.659C20.575,9.325 20.558,8.995 20.558,8.668C20.558,7.483 20.783,6.369 21.234,5.327C21.686,4.285 22.301,3.376 23.08,2.599C23.859,1.823 24.772,1.21 25.818,0.76C26.864,0.311 27.981,0.086 29.171,0.086C30.374,0.086 31.519,0.321 32.606,0.791C33.693,1.261 34.646,1.932 35.467,2.803C36.437,2.613 37.377,2.344 38.287,1.996C39.196,1.649 40.074,1.223 40.922,0.719C40.607,1.714 40.125,2.62 39.476,3.437C38.827,4.254 38.051,4.928 37.148,5.46C38.871,5.255 40.519,4.806 42.091,4.111L42.091,4.111Z" fill="#FFFFFF"/>
</svg>
