<svg width="44" height="44" viewBox="0 0 44 44" fill="none" xmlns="http://www.w3.org/2000/svg" xmlns:xlink="http://www.w3.org/1999/xlink">
<path d="M0.591,12.995C0.591,6.167 6.171,0.586 13,0.586L31.182,0.586C38.01,0.586 43.591,6.167 43.591,12.995L43.591,31.177C43.591,38.005 38.01,43.586 31.182,43.586L13,43.586C6.171,43.586 0.591,38.005 0.591,31.177L0.591,12.995ZM13,3.586C7.828,3.586 3.591,7.823 3.591,12.995L3.591,31.177C3.591,36.348 7.828,40.586 13,40.586L31.182,40.586C36.353,40.586 40.591,36.348 40.591,31.177L40.591,12.995C40.591,7.823 36.353,3.586 31.182,3.586L13,3.586ZM22.091,29.086C25.957,29.086 29.091,25.952 29.091,22.086C29.091,18.22 25.957,15.086 22.091,15.086C18.225,15.086 15.091,18.22 15.091,22.086C15.091,25.952 18.225,29.086 22.091,29.086ZM22.091,32.086C27.614,32.086 32.091,27.609 32.091,22.086C32.091,16.563 27.614,12.086 22.091,12.086C16.568,12.086 12.091,16.563 12.091,22.086C12.091,27.609 16.568,32.086 22.091,32.086ZM32.091,12.086C33.195,12.086 34.091,11.19 34.091,10.086C34.091,8.981 33.195,8.086 32.091,8.086C30.986,8.086 30.091,8.981 30.091,10.086C30.091,11.19 30.986,12.086 32.091,12.086Z" clip-rule="evenodd" fill-rule="evenodd" fill="#FFFFFF"/>
</svg>
