<svg width="44" height="44" viewBox="0 0 44 44" fill="none" xmlns="http://www.w3.org/2000/svg" xmlns:xlink="http://www.w3.org/1999/xlink">
<path d="M0.008,12.046C0.008,5.217 5.588,-0.363 12.417,-0.363L30.599,-0.363C37.427,-0.363 43.008,5.217 43.008,12.046L43.008,30.228C43.008,37.056 37.427,42.637 30.599,42.637L12.417,42.637C5.588,42.637 0.008,37.056 0.008,30.228L0.008,12.046ZM12.417,2.637C7.245,2.637 3.008,6.874 3.008,12.046L3.008,30.228C3.008,35.399 7.245,39.637 12.417,39.637L30.599,39.637C35.77,39.637 40.008,35.399 40.008,30.228L40.008,12.046C40.008,6.874 35.77,2.637 30.599,2.637L12.417,2.637ZM21.508,28.137C25.374,28.137 28.508,25.003 28.508,21.137C28.508,17.271 25.374,14.137 21.508,14.137C17.642,14.137 14.508,17.271 14.508,21.137C14.508,25.003 17.642,28.137 21.508,28.137ZM21.508,31.137C27.031,31.137 31.508,26.66 31.508,21.137C31.508,15.614 27.031,11.137 21.508,11.137C15.985,11.137 11.508,15.614 11.508,21.137C11.508,26.66 15.985,31.137 21.508,31.137ZM31.508,11.137C32.612,11.137 33.508,10.241 33.508,9.137C33.508,8.032 32.612,7.137 31.508,7.137C30.403,7.137 29.508,8.032 29.508,9.137C29.508,10.241 30.403,11.137 31.508,11.137Z" clip-rule="evenodd" fill-rule="evenodd" fill="#FFFFFF"/>
</svg>
